<svg xmlns="http://www.w3.org/2000/svg" width="15" height="14" viewBox="0 0 15 14">
    <g fill="none" fill-rule="evenodd" stroke-linecap="round" stroke-linejoin="round">
        <g fill="#FFC61E" stroke="#FFBE00">
            <g>
                <path d="M51.111 1.47l.632 1.956c.187.58.729.972 1.34.97l2.057-.003c1.363-.003 1.93 1.739.826 2.536l-1.667 1.204c-.495.357-.702.992-.512 1.571l.64 1.952c.424 1.293-1.061 2.37-2.162 1.568l-1.663-1.211c-.492-.36-1.162-.36-1.654 0l-1.663 1.211c-1.101.802-2.586-.275-2.162-1.568l.64-1.952c.19-.58-.016-1.214-.512-1.571l-1.667-1.204c-1.105-.797-.538-2.54.826-2.536l2.058.004c.61.001 1.152-.392 1.339-.971l.632-1.955c.418-1.295 2.254-1.295 2.672 0z" transform="translate(-76 -865) translate(24 631) translate(10 234)"/>
            </g>
        </g>
    </g>
</svg>
